<?xml version="1.0" encoding="iso-8859-1"?>
<!-- Generator: Adobe Illustrator 19.0.0, SVG Export Plug-In . SVG Version: 6.00 Build 0)  -->
<svg version="1.1" id="Capa_1" xmlns="http://www.w3.org/2000/svg" xmlns:xlink="http://www.w3.org/1999/xlink" x="0px" y="0px"
	 viewBox="0 0 386.612 386.612" style="enable-background:new 0 0 386.612 386.612;" xml:space="preserve">
<g>
	<g>
		<path style="fill:#00EFD1;" d="M344.816,110.237v234.58c0,23.083-18.713,41.796-41.796,41.796H83.592
			c-23.083,0-41.796-18.713-41.796-41.796V41.796C41.796,18.713,60.509,0,83.592,0h150.465l3.135,3.135l-2.09,2.09v88.816
			c-0.294,8.363,6.247,15.38,14.61,15.673c0.354,0.012,0.709,0.012,1.064,0h88.816l2.612-2.612L344.816,110.237z"/>
		<path style="fill:#00ACEA;" d="M342.204,107.102l-2.612,2.612h-88.816c-8.363,0.294-15.38-6.247-15.673-14.61
			c-0.012-0.354-0.012-0.709,0-1.064V5.224l2.09-2.09L342.204,107.102z"/>
	</g>
	<polygon style="fill:#46C43D;" points="243.984,237.192 283.69,290.482 227.265,290.482 214.204,271.673 214.204,271.673 	"/>
	<polygon style="fill:#3BB54A;" points="214.204,271.673 227.265,290.482 199.053,290.482 92.473,290.482 161.437,197.486 	"/>
	<circle style="fill:#D4E1F4;" cx="217.861" cy="169.796" r="21.42"/>
</g>
<g>
</g>
<g>
</g>
<g>
</g>
<g>
</g>
<g>
</g>
<g>
</g>
<g>
</g>
<g>
</g>
<g>
</g>
<g>
</g>
<g>
</g>
<g>
</g>
<g>
</g>
<g>
</g>
<g>
</g>
</svg>
